<svg id="Layer_1" data-name="Layer 1" xmlns="http://www.w3.org/2000/svg" viewBox="0 0 197.98 39.47"><defs><style>.cls-1{fill:#fff;}</style></defs><title>logo-horiz-white</title><rect width="50" height="39.47"/><path class="cls-1" d="M65.5,13a8,8,0,0,1,7.82,5.06H70a4.69,4.69,0,0,0-4.5-2.64c-3.35,0-5.77,2.38-5.77,6.18s2.42,6.2,5.77,6.2A4.68,4.68,0,0,0,70,25.19h3.32a8,8,0,0,1-7.82,5,8.41,8.41,0,0,1-8.61-8.6A8.43,8.43,0,0,1,65.5,13Z" transform="translate(-1.33 -1.37)"/><path class="cls-1" d="M82.19,30.31A6.52,6.52,0,0,1,75.5,23.4a6.81,6.81,0,1,1,13.62,0A6.69,6.69,0,0,1,82.19,30.31Zm0-2.4c2.06,0,4.1-1.48,4.1-4.51s-2-4.48-4-4.48-3.94,1.45-3.94,4.48S80.11,27.91,82.19,27.91Z" transform="translate(-1.33 -1.37)"/><path class="cls-1" d="M101.19,22.62c0-2.44-1.33-3.7-3.34-3.7s-3.37,1.26-3.37,3.7v7.47H91.72V16.74h2.76v1.52a5.11,5.11,0,0,1,4-1.74c3.13,0,5.48,2,5.48,5.69v7.88h-2.74Z" transform="translate(-1.33 -1.37)"/><path class="cls-1" d="M107.73,19h-1.57V16.74h1.57V13.42h2.79v3.32h3.25V19h-3.25v7.39c0,1,.39,1.41,1.55,1.41h1.7v2.3h-2.18c-2.38,0-3.86-1-3.86-3.71Z" transform="translate(-1.33 -1.37)"/><path class="cls-1" d="M118.93,30.09h-2.76V16.74h2.76v1.94a4.33,4.33,0,0,1,4-2.16v2.86h-.71c-2,0-3.29.85-3.29,3.68Z" transform="translate(-1.33 -1.37)"/><path class="cls-1" d="M130.7,16.52a5.65,5.65,0,0,1,4.63,2.16V16.74h2.79V30.09h-2.79v-2a5.73,5.73,0,0,1-4.67,2.21c-3.47,0-6.26-2.84-6.26-7S127.19,16.52,130.7,16.52Zm.59,2.4a4.1,4.1,0,0,0-4,4.43c0,2.89,2,4.56,4,4.56s4-1.63,4-4.51A4.13,4.13,0,0,0,131.29,18.92Z" transform="translate(-1.33 -1.37)"/><path class="cls-1" d="M147.23,16.52c3.27,0,5.4,1.62,6.16,4.43h-3a3.12,3.12,0,0,0-3.17-2.11c-2.23,0-3.71,1.65-3.71,4.56S145,28,147.23,28a3,3,0,0,0,3.17-2.11h3a6,6,0,0,1-6.16,4.44c-3.83,0-6.54-2.72-6.54-6.91S143.4,16.52,147.23,16.52Z" transform="translate(-1.33 -1.37)"/><path class="cls-1" d="M156.44,19h-1.58V16.74h1.58V13.42h2.79v3.32h3.24V19h-3.24v7.39c0,1,.38,1.41,1.55,1.41h1.69v2.3h-2.18c-2.37,0-3.85-1-3.85-3.71Z" transform="translate(-1.33 -1.37)"/><path class="cls-1" d="M170.66,30.31A6.51,6.51,0,0,1,164,23.4a6.81,6.81,0,1,1,13.61,0A6.69,6.69,0,0,1,170.66,30.31Zm0-2.4c2.06,0,4.1-1.48,4.1-4.51s-2-4.48-4-4.48-4,1.45-4,4.48S168.58,27.91,170.66,27.91Z" transform="translate(-1.33 -1.37)"/><path class="cls-1" d="M183,30.09h-2.76V16.74H183v1.94a4.33,4.33,0,0,1,4-2.16v2.86h-.71c-2,0-3.29.85-3.29,3.68Z" transform="translate(-1.33 -1.37)"/><path class="cls-1" d="M194.19,30.31c-3.2,0-5.45-1.89-5.57-4.32h2.86a2.43,2.43,0,0,0,2.66,2c1.6,0,2.45-.68,2.45-1.6,0-2.62-7.75-1.11-7.75-6,0-2.13,2-3.85,5.13-3.85s5,1.62,5.16,4.29h-2.76a2.2,2.2,0,0,0-2.49-2c-1.48,0-2.26.61-2.26,1.51,0,2.69,7.54,1.18,7.68,6C199.3,28.61,197.34,30.31,194.19,30.31Z" transform="translate(-1.33 -1.37)"/><path class="cls-1" d="M7.05,12.73h5.13l2,11.68,2.69-11.68h5.21l2.62,11.58,2-11.58h5.14L27.62,29.81H21.78L19.43,19.34,17,29.81H11.19Z" transform="translate(-1.33 -1.37)"/><path class="cls-1" d="M40.92,24H38.57v5.77H33.82V12.73h7.1c4.24,0,6.4,2.4,6.4,5.69C47.32,21.4,45.26,24,40.92,24Zm-.46-3.78c1.43,0,2-.72,2-1.84s-.58-1.86-2-1.86H38.57v3.7Z" transform="translate(-1.33 -1.37)"/></svg>