<svg xmlns="http://www.w3.org/2000/svg" width="77" height="75" viewBox="0 0 77 75"><g transform="translate(-1472 -361.25)"><path d="M1487.08,435.75h-9a5.582,5.582,0,0,1-5.58-5.58V392.33a5.582,5.582,0,0,1,5.58-5.58h3.42v43.42A5.582,5.582,0,0,0,1487.08,435.75Z" fill="none" stroke="#000" stroke-miterlimit="10" stroke-width="1"/><path d="M1499.08,435.75h-12a5.582,5.582,0,0,1-5.58-5.58V378.33a5.582,5.582,0,0,1,5.58-5.58h6.42v57.42A5.582,5.582,0,0,0,1499.08,435.75Z" fill="#3fa9f5" stroke="#000" stroke-miterlimit="10" stroke-width="1"/><path d="M1548.5,381.75v48.42a5.582,5.582,0,0,1-5.58,5.58h-43.84a5.582,5.582,0,0,1-5.58-5.58V367.33a5.582,5.582,0,0,1,5.58-5.58h29.42v14.42a5.582,5.582,0,0,0,5.58,5.58Z" fill="none" stroke="#000" stroke-miterlimit="10" stroke-width="1"/><line x1="20" y1="20" transform="translate(1528.5 361.75)" fill="none" stroke="#000" stroke-miterlimit="10" stroke-width="1"/><line x2="33" transform="translate(1503.5 394.75)" fill="none" stroke="#000" stroke-miterlimit="10" stroke-width="1"/><line x2="33" transform="translate(1503 404.75)" fill="none" stroke="#000" stroke-miterlimit="10" stroke-width="1"/><text transform="translate(1528.348 392.25)" font-size="25" font-family="Helvetica"><tspan x="0" y="19">$</tspan></text></g></svg>