<svg xmlns="http://www.w3.org/2000/svg" width="82" height="68.5" viewBox="0 0 82 68.5"><g transform="translate(-335.5 -364.5)"><path d="M417,382.69V400H384.5v-3.23a1.767,1.767,0,0,0-1.77-1.77H370.27a1.767,1.767,0,0,0-1.77,1.77V400H336V382.69a6.188,6.188,0,0,1,6.19-6.19h68.62A6.188,6.188,0,0,1,417,382.69Z" fill="none" stroke="#000" stroke-miterlimit="10" stroke-width="1"/><path d="M417,400v26.31a6.188,6.188,0,0,1-6.19,6.19H342.19a6.188,6.188,0,0,1-6.19-6.19V400h32.5v4.23a1.767,1.767,0,0,0,1.77,1.77h12.46a1.767,1.767,0,0,0,1.77-1.77V400Z" fill="none" stroke="#000" stroke-miterlimit="10" stroke-width="1"/><path d="M391.5,371.19v5.31h-31v-5.31a6.188,6.188,0,0,1,6.19-6.19h18.62A6.188,6.188,0,0,1,391.5,371.19Z" fill="none" stroke="#000" stroke-miterlimit="10" stroke-width="1"/><line x1="0.5" transform="translate(417 400)" fill="none" stroke="#000" stroke-miterlimit="10" stroke-width="1"/><line x1="0.5" transform="translate(335.5 400)" fill="none" stroke="#000" stroke-miterlimit="10" stroke-width="1"/><rect width="16" height="11" rx="1.77" transform="translate(368.5 395)" fill="#3fa9f5" stroke="#000" stroke-miterlimit="10" stroke-width="1"/></g></svg>