<svg xmlns="http://www.w3.org/2000/svg" width="85" height="83" viewBox="0 0 85 83"><g transform="translate(-713 -363.25)"><circle cx="8.5" cy="8.5" r="8.5" transform="translate(741.5 367.75)" fill="#3fa9f5" stroke="#000" stroke-miterlimit="10" stroke-width="1"/><circle cx="8.5" cy="8.5" r="8.5" transform="translate(780.5 363.75)" fill="none" stroke="#000" stroke-miterlimit="10" stroke-width="1"/><circle cx="8.5" cy="8.5" r="8.5" transform="translate(713.5 363.75)" fill="none" stroke="#000" stroke-miterlimit="10" stroke-width="1"/><circle cx="6.5" cy="6.5" r="6.5" transform="translate(753.5 432.75)" fill="none" stroke="#000" stroke-miterlimit="10" stroke-width="1"/><circle cx="8.5" cy="8.5" r="8.5" transform="translate(775.5 406.75)" fill="none" stroke="#000" stroke-miterlimit="10" stroke-width="1"/><circle cx="8.5" cy="8.5" r="8.5" transform="translate(713.5 415.75)" fill="none" stroke="#000" stroke-miterlimit="10" stroke-width="1"/><path d="M766.5,406.75h-34c-.36-1.02-2.42-7.21,1-13a14.589,14.589,0,0,1,5-5h22a14.589,14.589,0,0,1,5,5C768.92,399.54,766.86,405.73,766.5,406.75Z" fill="#3fa9f5" stroke="#000" stroke-miterlimit="10" stroke-width="1"/><line x2="7" y2="7" transform="translate(728.5 377.75)" fill="none" stroke="#000" stroke-miterlimit="10" stroke-width="1"/><line x1="15" y2="11" transform="translate(766.5 376.75)" fill="none" stroke="#000" stroke-miterlimit="10" stroke-width="1"/><line x1="5" y1="4" transform="translate(771.5 407.75)" fill="none" stroke="#000" stroke-miterlimit="10" stroke-width="1"/><line x1="4" y1="16" transform="translate(754.5 416.75)" fill="none" stroke="#000" stroke-miterlimit="10" stroke-width="1"/><line y1="7" x2="8" transform="translate(728.5 411.75)" fill="none" stroke="#000" stroke-miterlimit="10" stroke-width="1"/></g></svg>