<svg xmlns="http://www.w3.org/2000/svg" width="76" height="76" viewBox="0 0 76 76"><g transform="translate(-1098.75 -360.75)"><path d="M1136.75,361.25a37.5,37.5,0,1,0,37.5,37.5A37.5,37.5,0,0,0,1136.75,361.25Zm0,40.5a3,3,0,1,1,2.98-3.25,1.054,1.054,0,0,1,.02.25A3,3,0,0,1,1136.75,401.75Z" fill="none" stroke="#000" stroke-miterlimit="10" stroke-width="1"/><path d="M1139.75,398.75a3.127,3.127,0,1,1-.02-.25A1.054,1.054,0,0,1,1139.75,398.75Z" fill="#3fa9f5" stroke="#000" stroke-miterlimit="10" stroke-width="1"/><line y1="23" transform="translate(1136.5 372.5)" fill="none" stroke="#000" stroke-miterlimit="10" stroke-width="1"/><line x2="18" transform="translate(1139.5 398.5)" fill="none" stroke="#000" stroke-miterlimit="10" stroke-width="1"/></g></svg>