<svg id="Layer_1" data-name="Layer 1" xmlns="http://www.w3.org/2000/svg" viewBox="0 0 415 245"><defs><style>.cls-1{fill:#989898;}</style></defs><path class="cls-1" d="M21,162.47v-.4l.5-.79.5-.79v1l2.24-3.94,2.25-3.93,5.39-9.46,5.4-9.47,4.23-7.36L45.78,120l11.82-.14,11.81-.15.27-.71.27-.71-5.73-10.13L58.5,98l1-2,1-2L65.2,85.8l4.69-8.24V76l.65.24.65.24-.11.55-.12.55,4.58,8.06,4.59,8.06,4.05,7.1,4.06,7.1,9,15.78,9,15.77,6,10.52,6,10.52.84.92.83.92v.52h-50l.15-.65.15-.66-2.4-4.21-2.4-4.2-3.24-5.66-3.23-5.65H57.51l-3.86,6.7-3.87,6.71L48,158.38l-1.77,3.16v1.05l-12.62.14L21,162.87Zm60.84-22.6V139l-4.23-7.39-4.23-7.39-1.24-2-1.23-2h-1l-1.23,2-1.23,2-4.24,7.42L59,139v1.73H81.85Zm177.88,11-1.3-.22-2.6-.84-2.6-.84-1.88-1.19-1.87-1.19-2.08-2.46-2.07-2.46-1.19-3.39L243,134.94l.23-4.37.22-4.38,1.42-2.93,1.42-2.94,2.88-2.65L252,115l3.64-1.12,3.64-1.12,4.51.25,4.51.24,3.12,1.43,3.12,1.42,2.45,2.63,2.45,2.64,1.14,3,1.14,3,0,4.47,0,4.47-1.62,3.5-1.62,3.49-2.11,2.14-2.11,2.13-2.09,1.08-2.08,1.07-3.27.78-3.27.78-1.3-.06-1.3-.07-1.3-.22Zm6.65-7.81,1.93-.82,1.43-1.38,1.43-1.39,1-2.81,1-2.82v-3.7l-.56-2.27-.57-2.27-1.56-1.92L269,121.81l-2.12-1.1-2.12-1.09-3,.22-3,.22-2.17,1.55-2.16,1.54-1.08,2.11-1.09,2.1v9l1.56,2.55,1.56,2.55,2.29,1.22,2.29,1.22h4.56Zm74.06,7.61-2.25-.44L335.44,149l-2.76-1.27-2.05-1.88-2-1.87-1.44-2.87-1.44-2.88-.59-3.46-.58-3.46.66-3.29.67-3.29,1.36-2.53,1.35-2.52,2.05-1.88,2.05-1.87,2.93-1.38,2.92-1.39H350l2.95,1.4,2.95,1.4,2.31,2.15,2.31,2.15,1.5,3.29,1.5,3.28v10l-1.71,3.51-1.7,3.51L357.74,146,355.4,148l-2.22,1.06-2.23,1-3.05.57-3.06.58-1.08-.06-1.07-.06Zm6.69-7.14,1.72-.35,2.46-2.41,2.46-2.42.57-2.1.57-2.1v-5.85l-1.37-2.76-1.36-2.77-2-1.34-2-1.35-2.31-.26-2.32-.27-1.9.36-1.9.36-2.27,2.12-2.26,2.11-.88,2.66-.87,2.66.27,3,.27,3,1,2.06,1,2.07,1.22,1.15,1.22,1.15,1.56.82,1.56.82h3.77l1.72-.34ZM377.8,151l-1.3-.25-3.19-1-3.19-1-1.92-1.69-1.91-1.68,2.58-2.56,2.59-2.57,1.77,1.37,1.76,1.36,1.91.8,1.9.81h4.46l1.67-1,1.68-1,.32-1.29.32-1.29-.18-.94-.18-1-1.69-1.15-1.7-1.16-4.36-1.16-4.37-1.17-2-1.12-2-1.13-1.19-1.78-1.19-1.77v-6.09l.56-1.48.55-1.48,1.63-1.71L372.8,115l2.78-1,2.78-1h7.57l2.56.78,2.57.78,1.82,1.16,1.82,1.17.52,0,.52,0v1.84l-.31-.13-.32-.13-2.16,2-2.15,2h-1.5l-.33-.53-.32-.53-2-1-2-1h-5l-1.69,1-1.69,1v3.62l1.29,1,1.3,1,4.29,1.16,4.3,1.16,2.08.91,2.08.92,1.69,1.94,1.69,2,0-.41,0-.41.45,1.05.45,1.05,0,2.43,0,2.43-.32,1.64-.33,1.63-.45-.28-.46-.29v1.08l-1.59,1.83-1.59,1.83-2.81,1.06-2.8,1.06-3.28.24-3.27.24-1.3-.25Zm-239.26-1.16v-.44L145,134.41l6.41-14.94,4.6-10.78,4.61-10.78.5-.68.51-.68,3.92.16,3.93.15,1.89,4.47,1.88,4.47,9.19,21.6,9.2,21.6v1.27l-4.8-.15L182,150l-.67-1.31-.67-1.32-2-4.73-2-4.73-11.37-.15L154,137.59l-.67.57-.68.56-1.93,5.1-1.94,5.1-.51.66-.51.65h-9.24Zm34.14-20.86.31-.79-3.49-9.33L166,109.48l-.48-.5-.48-.51-.69.77-.69.77-3.51,9.31-3.51,9.31.34.55.33.54h15Zm28.94,20.65-.51-.66-6.84-17.19-6.83-17.18V114h8.8l.48.92.47.92,1.82,5.26,1.82,5.26,2.22,6.46,2.21,6.47.81-.16.81-.15,4.45-12.36,4.45-12.36,4.29-.15,4.29-.15v1.32l-6.59,16.84-6.59,16.85-.49.66-.5.65h-8.06Zm27.79.32-.37-.37V114h8.34l-.14,18-.13,18-3.67.15-3.66.16Zm79.16-5.06-3.26-5.39-3.84-6.18-3.85-6.17h-1.46L296,138.27l-.14,11.18h-7.8l-.14-17.77-.14-17.77,5,.15,5,.15,5,8.27,5,8.26,1.07,1.43,1.07,1.42.62-.38.62-.39V114h8.32V149.6l-.82.31-.82.32h-6.06Z"/></svg>