<svg id="Layer_1" data-name="Layer 1" xmlns="http://www.w3.org/2000/svg" viewBox="0 0 415 245"><defs><style>.cls-1{fill:#989898;}</style></defs><path class="cls-1" d="M18,157.71V146.44l4.12-.39v-41.8l-4.12-.4V92.49H42.61v11.36l-4.12.4V146l4.12.39v11.37Z"/><path class="cls-1" d="M68,159.19a97.54,97.54,0,0,1-20.49-2.27V142.19H59l.88,4.75c2.45.1,4.81.19,7.26.19,7,0,8.82-1.58,8.82-4.94s-1.37-4.15-8.63-7.11L63.1,133.4c-10.79-4.15-16.57-8.8-16.57-18.38,0-12.85,9-16.5,23.63-16.5,8.43,0,17.64,1.18,21.27,2.37v13.93H80.06l-1-4.15c-2.36-.1-5.3-.2-7.16-.2-5.78,0-8.23.69-8.23,4,0,3,1.37,4,7.54,6.23l5,1.88c12.55,4.84,17,9.29,17,18.67C93.2,153.26,85.16,159.19,68,159.19Z"/><path class="cls-1" d="M233.29,113.54,220,157.81H195.25l-13.43-44.27-4.8-.7V99.9h19.31l7.94,31.23c1.28,5.33,2.46,11,3.34,15.71h.19c1-4.75,2.16-10.28,3.44-15.71l7.84-31.23H238.2v12.94Z"/><path class="cls-1" d="M256.53,133.7v.79c0,7.41,1,11.36,13.33,11.36,5.79,0,15.88-.4,21.47-1v11.86a97.07,97.07,0,0,1-22.25,2.57c-21.08,0-29.9-7.61-29.9-27.47v-5.24c0-19.27,10.09-28.06,27.64-28.06,21.38,0,27.36,13.93,27.36,29.25v5.93ZM277,123.12c0-6.42-1.28-12-10.2-12-8.72,0-10.09,5.64-10.09,12v.79h20.39v-.79Z"/><path class="cls-1" d="M319.47,116.11v28.36L324,145v12.85H297.41V145l4.61-.49V113.24l-4.61-.49V99.9h20.88v4.84c5.59-5.24,12.65-6.22,18.93-6.22v15A61.57,61.57,0,0,0,319.47,116.11Z"/><path class="cls-1" d="M372.51,157.71v-3.66a33.8,33.8,0,0,1-18,5.14c-10.78,0-16.76-5.44-16.76-16.5v-2.37c0-15.42,11.66-17.1,27.94-17.1h5.29v-3.16c0-7-1.47-8.4-10.59-8.4-2.15,0-4,.1-6.17.2l-1,4.44H341.92V101.88A77.54,77.54,0,0,1,364,98.42c17.84,0,24.51,5.73,24.51,21.64v24.31l4.51.49v12.85Zm-.88-25.4h-5.79c-8,0-11.47.89-11.47,7.41v2.37c0,4.45,2.75,5.64,6.57,5.64a24.08,24.08,0,0,0,10.79-2.67V132.31Z"/><path class="cls-1" d="M160.84,96.64a43.4,43.4,0,0,0-10.68-6.42c-4.91-2.18-9.61-2.38-14.22-4.75-3.53-1.87-12.06-9.29-11-8.4-.39,1.09-3.63,11.57-2.16,20.76s5.59,15.31,14,19.56,16.77,4,17.85,10.18a27.11,27.11,0,0,1,.49,4.54,23.34,23.34,0,0,1,2.15,1.39c.59.49-.1,2.86-1.07,5.23s-2.16,4.55-3,4.35a12.53,12.53,0,0,1-2.45-.89l-.29.3a14.13,14.13,0,0,1-3.82,3,25.17,25.17,0,0,1,.58,2.67c.1.79-2,1.68-4.41,2.47h-.19c-2.46.79-4.71,1.19-5,.5a20.94,20.94,0,0,1-1.18-2.87,20,20,0,0,1-4.8-.49,14.14,14.14,0,0,1-1.57,2.47c-.49.59-2.65-.3-5-1.58s-4.22-2.67-4-3.46a17.19,17.19,0,0,1,1.07-2.87,29.8,29.8,0,0,1-3.23-3.75,14,14,0,0,1-2.74.59c-.79.1-1.67-2.17-2.55-4.74s-1.28-4.94-.69-5.34c.39-.2,1.08-.49,2.45-1.09a22.36,22.36,0,0,1,.3-5.23,22.77,22.77,0,0,1-2.36-1.78c-.59-.5.39-2.77,1.57-5s2.65-4.25,3.33-4a12.94,12.94,0,0,1,2.16,1l.2-.19a14.91,14.91,0,0,1,3.43-3.27s-3.33-4.64-3.92-9.48a68.76,68.76,0,0,1-.4-9.68,22.49,22.49,0,0,1-2.25,1.77c-1.86,1.39-3.33,2.28-6.08,4.65A39,39,0,0,0,97,133.89a38.62,38.62,0,0,0,8.14,18.48,40.44,40.44,0,0,0,37.25,14.13c20.69-3.26,36.28-21.34,32.65-44.27A38.84,38.84,0,0,0,160.84,96.64Z"/></svg>