<svg id="Layer_1" data-name="Layer 1" xmlns="http://www.w3.org/2000/svg" viewBox="0 0 415 245"><defs><style>.cls-1{fill:#989898;}</style></defs><path class="cls-1" d="M56.1,85.25q-13.51,0-22.08,6.61a37,37,0,0,0-12.29,16.67A59,59,0,0,0,18,129.23q0,13.76,7.53,21.54t21,7.79q13.53,0,22.09-6.75A37.81,37.81,0,0,0,81,135a59.2,59.2,0,0,0,3.73-20.64q0-13.49-7.53-21.34T56.1,85.25Zm4.51,48.4Q57,143.37,48,143.5c-3.18,0-5.56-1-7.14-3.11s-2.39-5.36-2.39-9.86a57.44,57.44,0,0,1,3.67-20.63q3.67-9.6,12.55-9.6c3.18,0,5.56,1,7.15,3s2.38,5.21,2.38,9.53A59.39,59.39,0,0,1,60.61,133.65Zm244.61-48.4q-11.07,0-20.21,9.86V87.45H267.37l-13.52,97.84,20.21-2.2,3.48-26.34A40.74,40.74,0,0,0,290,158.56q12.74,0,20.85-7.07a40.11,40.11,0,0,0,11.72-17.71,67.23,67.23,0,0,0,3.6-21.67q0-13-5.34-19.92T305.22,85.25Zm-1.29,41.58a30.8,30.8,0,0,1-5.66,12,12.08,12.08,0,0,1-9.79,4.8,23,23,0,0,1-8.62-1.69l4.63-33.73q6.19-7.92,13-7.92a7.36,7.36,0,0,1,6.06,2.72q2.18,2.73,2.18,9.48A58.86,58.86,0,0,1,303.93,126.83ZM127.51,85.25q-13.5,0-22.07,6.61a37,37,0,0,0-12.29,16.67,59,59,0,0,0-3.74,20.7q0,13.76,7.53,21.54t21,7.79q13.52,0,22.07-6.75A37.68,37.68,0,0,0,152.36,135a59.21,59.21,0,0,0,3.74-20.64q0-13.49-7.54-21.34T127.51,85.25Zm4.51,48.4q-3.6,9.72-12.61,9.85c-3.17,0-5.56-1-7.14-3.11s-2.39-5.36-2.39-9.86a57.44,57.44,0,0,1,3.67-20.63q3.67-9.6,12.56-9.6c3.17,0,5.55,1,7.14,3s2.38,5.21,2.38,9.53A59.17,59.17,0,0,1,132,133.65Zm256.8-44.12q-4.19-4.41-11.65-4.28a22.17,22.17,0,0,0-12,3.82,30,30,0,0,0-9.72,10.19L361.33,58l-20.21,2.07-13.39,96.29h20l5.85-42.05c2.58-5.1,9-12.32,14.36-12.32a5.21,5.21,0,0,1,3.61,1.17c.85.78,1.28,2.2,1.28,4.27a19.15,19.15,0,0,1-.38,3.38l-6.7,45.55h20.08l7-50.09a29.11,29.11,0,0,0,.25-4.41C393,96.59,391.6,92.47,388.82,89.53ZM256.24,101.86c0-5.27-1.37-9.39-4.12-12.33s-6.52-4.37-11.32-4.28a21.31,21.31,0,0,0-11.27,3.44,31.3,31.3,0,0,0-9.59,9.4c-.69-4.15-2.35-7.33-5-9.53a15.38,15.38,0,0,0-10.17-3.31,21,21,0,0,0-11.52,3.5,33.66,33.66,0,0,0-9.72,9.87V87.45h-17L157,156.36h19.95l5.81-42.05c2-4.93,7.45-12.32,12.86-12.32a4.32,4.32,0,0,1,3.22,1.17c.77.78,1.16,2.2,1.16,4.28a17.69,17.69,0,0,1-.39,3.38l-6.69,45.54h20l5.8-42c2.15-4.76,7.27-12.33,13-12.33a4.36,4.36,0,0,1,3.22,1.17c.76.78,1.15,2.21,1.15,4.28a17.52,17.52,0,0,1-.39,3.38L229,156.37h20l7-50.09A27,27,0,0,0,256.24,101.86Z"/></svg>