<svg id="Layer_1" data-name="Layer 1" xmlns="http://www.w3.org/2000/svg" viewBox="0 0 415 245"><defs><style>.cls-1{fill:#fff;}.cls-2{fill:#535051;}</style></defs><path class="cls-1" d="M21,148.79H96.14V95.68H21Z"/><path class="cls-2" d="M50.44,115.74a17.19,17.19,0,0,0-2.2-.14c-4,0-6.05,2.36-6.05,7V137H32.71v-29.5H42v2.69a9.79,9.79,0,0,1,7.36-3.5c.41,0,.74,0,1.06,0ZM64.73,95.68V110.2a10.17,10.17,0,0,1,7.9-3.58c7.71,0,11.8,4.58,11.8,13.56V137H75V120.64c0-2.46-1.23-5.39-4.79-5.39-3.18,0-5.43,2.26-5.43,6.21V137H55.25V95.68H21v53.11H96.14V95.68Z"/><path class="cls-2" d="M119.59,113.43h5c5.58,0,8.87-2.48,8.87-6.45,0-3.73-2.82-6.09-8.22-6.09h-5.64Zm-5.87-17.75h10c8.1,0,15.91,1.3,15.91,11.18,0,5-3.7,8.58-8.45,9.41v.12c1.82.71,2.7,1.6,4,4.14L143,137h-6.69L130,122.67c-1.82-4-3.76-4-6.87-4h-3.53V137h-5.87Z"/><path class="cls-2" d="M158.67,133.28c6.32,0,9.13-5.78,9.13-11,0-5.61-3.39-11-9.13-11s-9.19,5.44-9.19,11C149.48,127.5,152.3,133.28,158.67,133.28Zm0-26.5c8.9,0,14.87,6.48,14.87,15.45,0,8.45-6.09,15.45-14.87,15.45s-14.93-7-14.93-15.45C143.74,113.26,149.71,106.78,158.67,106.78Z"/><path class="cls-2" d="M193.29,111.18c-5.86,0-8.67,5.61-8.67,11.11,0,4.92,2.53,11,8.61,11,5.8,0,8.21-6.54,8.1-11.17.11-5.32-2.18-10.93-8-10.93ZM179.22,95.69h5.4v15.83h.11c1.67-2.72,4.6-4.74,9.71-4.74,8.5,0,12.63,7,12.63,14.93,0,8.1-3.73,16-12.58,16a11.74,11.74,0,0,1-10-4.86h-.11V137h-5.17Z"/><path class="cls-2" d="M232.63,119.39c0-4.51-2.64-8.21-7.3-8.21-5.28,0-7.46,4.39-7.86,8.21Zm3.5,16.38a22.32,22.32,0,0,1-9.25,1.91c-10.39,0-15.15-6.36-15.15-16,0-8.74,5.45-14.93,13.72-14.93,9.76,0,12.92,7.17,12.92,16.67h-20.9a9.61,9.61,0,0,0,9.64,9.83,17.2,17.2,0,0,0,9-2.95Z"/><path class="cls-2" d="M280.6,111.87h-7.76V128c0,3.41,2.07,5.26,4.54,5.26a6.62,6.62,0,0,0,3.67-1v4.63a16.64,16.64,0,0,1-4.59.81c-5.57,0-9-2.66-9-8.56V111.87H263v-4.4h4.44v-6.83l5.39-1.73v8.56h7.76Z"/><path class="cls-2" d="M298.4,95.68h5.87V113h19.61V95.68h5.87V137h-5.87V118.17H304.27V137H298.4Z"/><path class="cls-2" d="M354.74,122.93c-1.15,0-2.3-.12-3.44-.12-2.94,0-10.17.46-10.17,5.67,0,3.13,3,4.8,5.46,4.8,5.34,0,8.15-3.35,8.15-7.75Zm-16-13.37a18.56,18.56,0,0,1,9.64-2.78c8.39,0,11.78,4.17,11.78,12.21V131.2a45.93,45.93,0,0,0,.23,5.79h-5.06v-3.82h-.11a10.84,10.84,0,0,1-9.07,4.51c-6.32,0-10.74-2.78-10.74-9.2,0-7.41,8-9.72,13.61-9.72,2.12,0,3.62,0,5.74.12,0-5.1-1.84-7.7-7.24-7.7a13.63,13.63,0,0,0-8.49,3Z"/><path class="cls-2" d="M368.23,95.69h5.4V137h-5.4V95.69Z"/><path class="cls-2" d="M382.57,111.87h-4.13v-4.4h4.13v-.61c0-7.17,1.83-11.86,9.81-11.86a22.33,22.33,0,0,1,3.62.35l-.23,4.4a8.17,8.17,0,0,0-2.58-.35c-4.65,0-5.23,3-5.23,7v1.07h7.75v4.4H388V137h-5.39Z"/><path class="cls-2" d="M260,107.12a14.07,14.07,0,0,0-3.23-.34,8.93,8.93,0,0,0-7.64,5.26H249v-4.57H244V137h5.39V123.56c0-7.41,3.16-12,8-12a8.17,8.17,0,0,1,2.66.41Z"/></svg>